<?xml version="1.0" encoding="iso-8859-1"?>
<!-- Uploaded to: SVG Repo, www.svgrepo.com, Generator: SVG Repo Mixer Tools -->
<!DOCTYPE svg PUBLIC "-//W3C//DTD SVG 1.1//EN" "http://www.w3.org/Graphics/SVG/1.1/DTD/svg11.dtd">
<svg fill="#FFFFFF" version="1.1" id="Capa_1" xmlns="http://www.w3.org/2000/svg" xmlns:xlink="http://www.w3.org/1999/xlink" 
	 width="800px" height="800px" viewBox="0 0 383.974 383.974"
	 xml:space="preserve">
<g>
	<g>
		<g id="Layer_5_37_">
			<g>
				<g>
					<g>
						<path d="M64.104,142.734c-6.409-16.096-27.998-43.564-4.953-69.597c23.044-26.03-80.582,2.877-55.083,78.346
							c8.974,26.552,45.645,42.973,57.495,41.399C73.417,191.312,68.718,154.329,64.104,142.734z"/>
					</g>
					<g>
						<path d="M78.525,160.106c-1.335,0.5-1.604-0.333-1.655-0.731c-1.118-8.524-2.997-16.146-4.634-20.261
							c-0.83-2.082-1.84-4.25-2.942-6.499c-0.152-0.311-0.417-0.915-0.088-1.508c3.09-4.607,9.665-16.645-0.033-25.116
							c-12.055-10.528,36.996-3.46,29.756,32.539C96.637,149.927,85.122,158.432,78.525,160.106z"/>
					</g>
				</g>
				<g>
					<g>
						<path d="M319.87,142.734c6.41-16.096,27.998-43.564,4.953-69.597c-23.044-26.03,80.582,2.877,55.082,78.346
							c-8.974,26.552-45.646,42.973-57.494,41.399C310.558,191.312,315.256,154.329,319.87,142.734z"/>
					</g>
					<g>
						<path d="M305.675,160.188c0.91,0.357,1.398-0.582,1.463-1.063c1.122-8.423,2.979-15.936,4.603-20.01
							c0.786-1.975,1.734-4.025,2.771-6.148c0.208-0.426,0.699-1.297,0.308-1.783c-3.091-4.607-9.713-16.72-0.017-25.191
							c12.057-10.528-36.996-3.46-29.755,32.539C287.339,149.927,299.078,158.513,305.675,160.188z"/>
					</g>
				</g>
				<path d="M330.675,238.214h-26.954c-0.688,0-0.653-0.48-0.563-0.723c0.837-2.26,1.555-4.555,2.146-6.885
					c0.062-0.24,0.114-0.723,0.906-0.723h24.466c3.59,0,6.5-2.91,6.5-6.5s-2.91-6.5-6.5-6.5h-21.925c-1.25,0-1.434-0.77-1.425-1.152
					c0.01-0.449,0.017-0.9,0.017-1.354c0-33.606-24.956-62.435-62.366-76.583c-0.536-0.254-0.492-0.769-0.394-1.021
					c0.701-1.778,1.093-3.704,1.093-5.722c0-8.837-7.352-16-16.42-16c-8.27,0-15.101,5.962-16.239,13.715
					c-0.045,0.308,0.026,1.108-0.81,0.838c-6.516-0.865-12.52-1.227-19.365-1.227c-7.894,0-13.838,0.342-21.282,1.484
					c-1.226,0.179-1.872-0.979-1.98-1.581c-1.346-7.515-8.056-13.229-16.152-13.229c-9.066,0-16.418,7.163-16.418,16
					c0,1.993,0.379,3.898,1.063,5.657c0.241,0.617,1.013,1.665-0.088,2.17c-36.041,14.484-59.643,42.651-59.643,75.499
					c0,0.279,0.002,0.561,0.007,0.84c0.008,0.557,0.152,1.666-1.348,1.666H50.455c-3.59,0-6.5,2.91-6.5,6.5s2.91,6.5,6.5,6.5
					c0,0,21.66,0,28.879,0c0.958,0,0.994,0.514,1.06,0.77c0.575,2.26,1.271,4.486,2.075,6.678c0.108,0.295,0.323,0.883-0.802,0.883
					H50.455c-3.59,0-6.5,2.908-6.5,6.5c0,3.59,2.91,6.5,6.5,6.5h37.159c0.909,0,1.798,0.035,2.005,0.42
					c6.797,10.83,16.137,19.822,27.99,27.572c0.342,0.225,0.809,0.838,0.3,1.412l-13.354,13.557
					c-2.521,2.557-2.489,6.672,0.067,9.189c1.268,1.248,2.914,1.871,4.562,1.871c1.68,0,3.358-0.646,4.631-1.938l15.851-16.09
					c0.586-0.635,1.266-0.479,1.534-0.35c2.121,1.021,4.289,1.99,6.501,2.906c0.271,0.109,0.646,0.525,0.181,0.971l-18.135,18.404
					c-2.52,2.559-2.489,6.674,0.068,9.191c1.266,1.248,2.914,1.869,4.562,1.869c1.681,0,3.359-0.646,4.631-1.938l22.473-22.807
					c0.646-0.666,1.106-0.551,1.329-0.488c12.463,3.496,25.949,5.41,40.033,5.41c18.667,0,36.074-3.271,51.646-9.227
					c0.136-0.053,0.641-0.205,1.065,0.215l21.572,21.896c1.272,1.291,2.951,1.938,4.632,1.938c1.646,0,3.295-0.623,4.562-1.871
					c2.557-2.52,2.588-6.635,0.067-9.189l-18.338-18.611c-0.219-0.221-0.022-0.441,0.112-0.514c2.279-1.191,4.498-2.439,6.65-3.75
					c0.152-0.092,0.523-0.244,0.773,0.049l16.732,16.98c1.271,1.291,2.95,1.938,4.631,1.938c1.646,0,3.295-0.621,4.562-1.869
					c2.558-2.521,2.588-6.637,0.067-9.191l-14.959-15.184c-0.556-0.51-0.125-0.893,0.085-1.062
					c7.623-6.154,14.057-13.152,19.031-20.785c0.201-0.309,0.476-0.932,1.392-0.932h33.55c3.59,0,6.5-2.908,6.5-6.5
					C337.178,241.119,334.266,238.214,330.675,238.214z M197.964,280.5c-18.438,0-35.562-4.215-49.77-11.428
					c-1.567-0.795-0.772-1.561,1.427-0.781c11.04,3.348,17.08,3.479,29.715,3.479c52.775,0,95.558-32.135,95.558-71.771
					c0-10.081-1.249-16.854-6.242-25.558c-0.837-1.645,1.012-0.386,2.194,0.881c10.146,10.854,16.103,24.078,16.103,38.345
					C286.948,250.576,247.108,280.5,197.964,280.5z"/>
			</g>
		</g>
	</g>
</g>
</svg>